
<svg xmlns="http://www.w3.org/2000/svg" version="1.1" xmlns:xlink="http://www.w3.org/1999/xlink" preserveAspectRatio="none" x="0px" y="0px" width="302px" height="299px" viewBox="0 0 302 299">
<defs>
<g id="Layer0_0_FILL">
<path fill="#FFFFFF" stroke="none" d="
M 232.15 277
L 230.55 277 230.55 297.7 232.15 297.7 232.15 277
M 232.35 270.1
Q 231.9 269.65 231.4 269.65 230.8 269.65 230.35 270.1 229.95 270.5 229.95 271.1 229.95 271.75 230.35 272.15 230.8 272.6 231.4 272.6 231.9 272.6 232.35 272.15 232.75 271.75 232.75 271.1 232.75 270.5 232.35 270.1
M 197.95 278.7
Q 199.5 278.7 200.75 279.15 201.95 279.55 202.8 280.45 203.65 281.35 204.1 282.6 204.6 283.85 204.6 285.45
L 204.6 297.7 206.2 297.7 206.2 287.55
Q 206.2 285.55 206.75 283.95 207.25 282.3 208.25 281.15 209.3 280 210.75 279.35 212.2 278.7 214 278.7 215.6 278.7 216.8 279.15 218.05 279.55 218.95 280.45 219.75 281.35 220.25 282.6 220.65 283.85 220.65 285.45
L 220.65 297.7 222.25 297.7 222.25 285.1
Q 222.25 283.25 221.8 281.7 221.25 280.2 220.25 279.15 219.25 278.1 217.75 277.55 216.25 277 214.45 277 212.85 277 211.55 277.45 210.15 277.85 209.1 278.6 208.05 279.35 207.25 280.45 206.5 281.6 206 283 205.7 281.6 205.05 280.45 204.5 279.35 203.45 278.6 202.5 277.8 201.2 277.45 199.9 277 198.35 277 196.9 277 195.6 277.4 194.25 277.75 193.2 278.45 192.15 279.15 191.4 280.15 190.55 281.15 190.1 282.45
L 190.1 277 188.5 277 188.5 297.7 190.1 297.7 190.1 287.55
Q 190.1 285.55 190.6 283.95 191.15 282.3 192.15 281.15 193.2 280 194.65 279.35 196.1 278.7 197.95 278.7
M 228.05 217.3
L 218.1 217.3 218.1 258.85 228.05 258.85 228.05 217.3
M 216.45 239.15
Q 216.45 236.55 215.5 234.45 214.6 232.45 212.9 231.05 211.25 229.6 208.75 228.9 206.3 228.2 203.15 228.2 199.55 228.2 196.05 229 192.8 229.85 189.15 231.5
L 191.85 238.2
Q 194.25 237 196.65 236.45 198.95 235.8 200.9 235.8 203.7 235.8 205.2 236.95 206.65 238.15 206.65 240.35
L 206.65 240.65 198.8 240.65
Q 196 240.7 193.8 241.35 191.6 241.95 190.2 243.15 188.7 244.3 187.95 245.95 187.2 247.65 187.2 249.8 187.2 251.9 187.9 253.6 188.6 255.35 189.95 256.65 191.25 257.9 193.2 258.6 195.15 259.25 197.55 259.25 200.65 259.25 202.9 258.3 205.2 257.35 206.65 255.4
L 206.65 258.85 216.45 258.85 216.45 239.15
M 197.6 246.75
Q 198.6 245.95 200.75 245.95
L 206.65 245.95 206.65 248.6
Q 206.2 250.3 204.55 251.4 202.8 252.55 200.65 252.55 198.75 252.55 197.6 251.6 196.55 250.65 196.55 249.1 196.55 247.5 197.6 246.75
M 240.8 217.3
L 230.85 217.3 230.85 258.85 240.8 258.85 240.8 217.3
M 250.45 279
L 250.45 277.55 243.4 277.55 243.4 272.45 241.85 272.45 241.85 277.55 238.85 277.55 238.85 279 241.85 279 241.85 292
Q 241.85 293.45 242.15 294.5 242.45 295.65 243.1 296.35 243.7 297.05 244.55 297.4 245.4 297.75 246.55 297.75 247.65 297.75 248.75 297.35 249.8 297 250.8 296.3
L 250.2 294.9
Q 249.4 295.5 248.5 295.8 247.6 296.1 246.75 296.1 245.05 296.15 244.25 295.1 243.9 294.5 243.65 293.75 243.4 292.9 243.4 291.8
L 243.4 279 250.45 279
M 260.35 228.55
Q 258.65 228.25 256.7 228.25 252.1 228.6 250.2 229.4
L 247.5 230.7 245.25 232.5
Q 242.75 235.55 242.05 237.45 240.9 241.45 240.9 243.85 241.25 248.3 242 250.1 243.1 252.9 245.2 255
L 247.5 256.75 250.2 258.05
Q 252.2 258.75 256.85 259.2 258.95 259.2 260.9 258.85 262.7 258.45 264.45 257.75 266.1 257.1 267.5 256.1 268.95 255.1 270.05 253.8
L 264.85 248.6
Q 263.4 250.1 261.55 250.9 259.7 251.65 257.8 251.65 255.2 251.65 253.4 250.3 251.65 248.95 250.95 246.35
L 271.9 246.35
Q 272.1 243.6 271.3 238.85 270.85 237.2 270.2 235.8 269.5 234.35 268.55 233.15 267.5 232 266.3 231.05 265.1 230.15 263.6 229.5 262.05 228.85 260.35 228.55
M 250.7 241.05
Q 251.15 238.4 252.7 236.85 253.5 236.05 254.5 235.65 255.5 235.25 256.75 235.25 257.9 235.25 259 235.65 260 236.05 260.75 236.85 261.5 237.6 261.9 238.7 262.3 239.75 262.3 241.05
L 250.7 241.05
M 301 228.55
L 291.1 228.55 284.7 248.3 277.5 228.55 267.25 228.55 279.8 258.1 279.1 259.55
Q 278.5 260.6 277.6 261.2 276.65 261.8 275.4 261.8 273.4 261.8 271.35 260.15
L 267.25 267
Q 269.3 268.6 271.5 269.4 273.7 270.15 276.25 270.15 278.35 270.15 280.15 269.6 281.9 269.1 283.4 268.05 284.9 267.05 286 265.45 287.2 263.95 288 261.8
L 301 228.55
M 58.9 277
Q 56.75 277 54.85 277.8 53 278.55 51.65 279.95 50.3 281.35 49.6 283.2 48.8 285.15 48.8 287.4 48.8 289.65 49.6 291.55 50.3 293.45 51.65 294.85 53 296.2 54.85 297 56.75 297.75 58.9 297.75
L 61.25 297.5 63.4 296.85 65.3 295.85 66.9 294.45 65.95 293.4
Q 64.7 294.75 62.85 295.5 61.1 296.2 58.95 296.2 57.15 296.2 55.65 295.65 54.15 295.05 53 293.9 51.85 292.8 51.2 291.3 50.55 289.7 50.4 287.8
L 68.5 287.8
Q 68.5 285.45 67.9 283.5 67.25 281.45 66 280.05 64.75 278.55 63 277.8 61.15 277 58.9 277
M 55.7 279.1
Q 57.15 278.5 58.9 278.5 60.6 278.5 62.1 279.1 63.5 279.65 64.6 280.7 65.65 281.7 66.25 283.2 66.85 284.6 66.95 286.4
L 50.5 286.4
Q 50.65 284.6 51.3 283.2 52 281.7 53.1 280.7 54.2 279.65 55.7 279.1
M 40.25 282.45
Q 39.65 281.15 38.8 280.15 37.9 279.1 36.8 278.4 35.65 277.65 34.3 277.3 32.95 276.9 31.4 276.9 29.25 276.9 27.35 277.65 25.6 278.45 24.25 279.85 22.85 281.3 22.15 283.2 21.4 285.15 21.4 287.4 21.4 289.65 22.15 291.6 22.85 293.5 24.25 294.85 25.6 296.3 27.45 297.05 29.25 297.8 31.45 297.8 32.95 297.8 34.3 297.4 35.65 297.05 36.8 296.35 37.9 295.65 38.8 294.6 39.65 293.55 40.25 292.3
L 40.25 297.7 41.9 297.7 41.9 268.25 40.25 268.25 40.25 282.45
M 31.65 278.5
Q 33.45 278.5 35.05 279.15 36.65 279.8 37.8 281 39 282.25 39.65 283.85 40.25 285.5 40.25 287.4 40.25 289.3 39.65 290.95 39 292.55 37.8 293.8 36.65 295 35.05 295.65 33.45 296.3 31.65 296.3 29.8 296.3 28.2 295.65 26.6 295 25.45 293.8 24.3 292.55 23.7 290.95 23.05 289.3 23 287.4 23.05 285.5 23.7 283.85 24.3 282.25 25.45 281.05 26.65 279.8 28.2 279.15 29.8 278.5 31.65 278.5
M 45.55 220.1
Q 45.55 218.05 44.3 216.75 43 215.5 41.05 215.5 39.1 215.5 37.8 216.75 36.55 218.05 36.55 220.1 36.55 222.05 37.8 223.35 39.1 224.6 41.05 224.6 43 224.6 44.3 223.35 45.55 222.05 45.55 220.1
M 156.25 277
Q 154.75 277 153.45 277.4 152.1 277.75 151.1 278.45 150 279.15 149.25 280.15 148.4 281.15 147.95 282.45
L 147.95 277 146.35 277 146.35 297.7 147.95 297.7 147.95 287.55
Q 147.95 285.55 148.5 283.95 149 282.3 150 281.15 151.1 280 152.5 279.35 154 278.7 155.85 278.7 157.35 278.7 158.6 279.15 159.8 279.55 160.7 280.45 161.5 281.35 162 282.6 162.45 283.85 162.45 285.45
L 162.45 297.7 164.05 297.7 164.05 287.55
Q 164.05 285.55 164.6 283.95 165.15 282.3 166.15 281.15 167.15 280 168.65 279.35 170.05 278.7 171.9 278.7 173.5 278.7 174.65 279.15 175.9 279.55 176.8 280.45 177.65 281.35 178.1 282.6 178.5 283.85 178.5 285.45
L 178.5 297.7 180.1 297.7 180.1 285.1
Q 180.1 283.25 179.65 281.7 179.1 280.2 178.1 279.15 177.1 278.1 175.6 277.55 174.15 277 172.3 277 170.7 277 169.4 277.45 168.05 277.85 166.95 278.6 165.9 279.35 165.15 280.45 164.35 281.6 163.9 283 163.6 281.6 162.95 280.45 162.35 279.35 161.35 278.6 160.4 277.8 159.1 277.45 157.8 277 156.25 277
M 121.25 277
L 119.55 277 119.55 289.65
Q 119.55 291.55 120.1 293.1 120.65 294.55 121.65 295.55 122.65 296.65 124.15 297.25 125.6 297.75 127.45 297.75 129 297.7 130.3 297.35 131.6 297 132.6 296.3 133.65 295.55 134.45 294.55 135.25 293.5 135.75 292.2
L 135.75 297.7 137.35 297.7 137.35 277 135.75 277 135.75 287.15
Q 135.75 289.15 135.2 290.85 134.7 292.45 133.65 293.6 132.6 294.75 131.2 295.4 129.7 296.05 127.8 296.1 126.25 296.1 125 295.65 123.85 295.15 122.95 294.25 122.1 293.45 121.65 292.2 121.25 290.95 121.25 289.35
L 121.25 277
M 89.65 277
L 87.85 277 80.45 295.9 73.05 277 71.2 277 79.65 297.7 81.3 297.7 89.65 277
M 94.85 295.55
Q 94.45 295.15 93.85 295.15 92.55 295.15 92.55 296.6 92.55 298 93.85 298 94.45 298 94.85 297.6 95.25 297.15 95.25 296.6 95.25 296 94.85 295.55
M 99.95 293.6
L 99.25 294.9
Q 100.65 296.2 102.6 297 104.65 297.75 106.85 297.75 108.25 297.75 109.5 297.4 110.8 297.1 111.75 296.4 112.8 295.7 113.35 294.7 113.95 293.55 113.95 292.2 113.95 290.9 113.45 289.9 113 289 112.1 288.35 111.35 287.75 110.15 287.25
L 107.95 286.5
Q 104.7 285.5 103.8 284.95 102.9 284.5 102.45 283.8 101.9 283.05 101.9 282.05 101.9 281.15 102.3 280.5 102.7 279.8 103.4 279.4 104.1 278.9 105.05 278.75
L 107.05 278.5
Q 108.55 278.5 109.9 278.9 111.2 279.25 112.3 280
L 113 278.6
Q 111.75 277.85 110.3 277.45 108.8 277 107.1 277 105.7 277 104.5 277.3 103.25 277.6 102.3 278.25 101.4 278.9 100.9 279.85 100.35 280.85 100.35 282.2 100.35 283.5 100.85 284.45 101.3 285.3 102.25 285.95 103.05 286.55 104.2 287.05
L 106.4 287.8
Q 109.55 288.8 110.55 289.4 111.45 289.95 111.9 290.65 112.4 291.4 112.4 292.5 112.35 293.45 111.85 294.15 111.45 294.85 110.7 295.35 109.9 295.8 108.9 296.05 107.95 296.2 106.9 296.2 104.95 296.2 103.1 295.55 101.3 294.85 99.95 293.6
M 18.6 219.6
L 1 219.6 1 258.85 11.25 258.85 11.25 248 18.85 248 24.5 258.85 36.1 258.85 27.95 246.05
Q 29.7 245.15 30.9 243.9 32.25 242.65 33.15 241.05 34 239.45 34.5 237.5 34.9 235.6 34.9 233.35 34.9 230.15 33.85 227.55 32.75 225 30.7 223.2 28.55 221.45 25.55 220.55 22.45 219.6 18.6 219.6
M 11.25 227.8
L 18.65 227.8
Q 20.2 227.8 21.45 228.15 22.65 228.55 23.45 229.3 24.35 230.1 24.75 231.15 25.2 232.3 25.2 233.7 25.2 235.2 24.75 236.35 24.35 237.5 23.45 238.25 22.65 239.05 21.45 239.4 20.2 239.8 18.65 239.8
L 11.25 239.8 11.25 227.8
M 128.95 243.5
Q 128.95 244.95 128.55 246.25 128.15 247.45 127.45 248.4 126.7 249.3 125.65 249.75 124.6 250.3 123.3 250.35 121.05 250.35 119.75 248.85 118.45 247.4 118.45 244.85
L 118.45 228.55 108.5 228.55 108.5 242.25
Q 107.65 240.7 106.3 239.4 105 238.2 103.05 237.25
L 99.25 235.8
Q 94.1 234.35 92.15 233.6 90.6 232.95 89.8 232.2 88.95 231.35 88.95 230.2 88.95 228.85 90.05 228.2 91.05 227.5 93 227.5 95.4 227.5 99 228.75 102.45 229.9 105.6 231.7
L 109.5 223.55
Q 104.95 221.15 102.25 220.45 96.7 219.2 93.85 219.2 90.35 219.2 87.4 220 84.55 220.85 82.45 222.45 80.4 224 79.35 226.2 78.2 228.45 78.2 231.15 78.2 233.65 79.05 235.55 79.85 237.3 81.4 238.6 82.75 239.8 84.75 240.7
L 88.5 242.05
Q 91.05 242.9 95.55 244.2 97.15 244.85 97.95 245.55 98.85 246.45 98.85 247.65 98.85 249.15 97.45 250 96.15 250.85 93.85 250.85 92.35 250.85 90.55 250.4
L 86.75 249.15 83.05 247.25
Q 81.15 246.2 79.7 244.9
L 78.5 247.4 78.85 243.65
Q 78.85 241.35 77.65 237.3
L 76.25 234.7 74.3 232.45
Q 71.1 230.1 69.1 229.3 64.8 228.25 62.35 228.25 57.6 228.6 55.55 229.3
L 52.75 230.7 50.35 232.45 48.4 234.7 47 237.3
Q 46.2 240.05 45.95 242
L 45.95 228.55 36.1 228.55 36.1 258.85 45.95 258.85 45.95 245 46.15 247.05 47 250.05 48.4 252.65 50.35 254.9 52.75 256.75 55.55 258.05
Q 57.6 258.75 62.35 259.2 64.8 259.2 69.1 258.05
L 71.95 256.75 74.3 254.9 75.95 253.1
Q 77.6 254.4 79.65 255.5 81.7 256.7 84.05 257.45 86.4 258.3 88.85 258.7 91.35 259.2 93.8 259.2 97.05 259.2 99.9 258.4 102.8 257.65 104.95 256.1 107.1 254.55 108.3 252.35 108.6 251.7 108.85 251.15 109 251.8 109.25 252.5 110.05 254.6 111.45 256.1 112.8 257.65 114.85 258.45 116.85 259.25 119.25 259.25 120.85 259.25 122.3 258.9 123.7 258.55 124.95 257.9 126.15 257.25 127.15 256.2 128.15 255.2 128.95 253.9
L 128.95 258.85 138.9 258.85 138.9 228.55 128.95 228.55 128.95 243.5
M 56.3 240.7
Q 56.75 239.35 57.65 238.35 58.5 237.4 59.7 236.85 60.9 236.3 62.35 236.3 63.75 236.3 65 236.85 66.2 237.4 67.05 238.35 67.95 239.35 68.35 240.7 68.85 242.1 68.85 243.8 68.85 245.5 68.35 246.85 67.95 248.3 67.05 249.3 66.2 250.25 65 250.75 63.75 251.35 62.35 251.35 60.9 251.35 59.7 250.75 58.5 250.25 57.65 249.3 56.75 248.3 56.3 246.85 55.85 245.5 55.85 243.8 55.85 242.1 56.3 240.7
M 161.05 219.6
L 151.45 219.6 151.45 217.3 141.5 217.3 141.5 258.85 151.45 258.85 151.45 223.25 165.25 258.85 175.85 258.85 191.15 219.6 180.65 219.6 170.8 248 161.05 219.6
M 120.4 135.4
L 108.95 116.25 97.35 135.4 108.95 154.55 120.4 135.4
M 66.55 91.05
Q 66.4 91.05 66.35 90.8
L 54.4 70.85 42.9 90.05 95.25 177.35 106.7 158.1 93.75 136.4 93.75 136.3 66.55 91.05
M 119.25 1
L 96.3 1 56.45 67.25 67.95 86.5 119.25 1
M 163.35 154.55
L 174.85 135.4 149.65 93.4 124.55 135.4 136.05 154.55 149.65 131.7 163.35 154.55
M 189.2 159.2
Q 189.05 159.1 189 159
L 176.9 138.95 163.35 161.7 149.65 138.95 136.05 161.7 122.45 138.95 98.4 179.15 201 179.15 189.2 159.2
M 190.55 116.25
L 179.1 135.4 190.55 154.55 202.15 135.4 190.55 116.25
M 180.2 1
L 231.4 86.5 243.05 67.25 203.15 1 180.2 1
M 136.05 44.55
L 108.95 44.55 122.45 67.25 136.05 44.55
M 122.45 67.25
L 136.05 90.05 149.65 67.25 122.45 67.25
M 163.35 90.05
L 176.9 67.25 149.65 67.25 163.35 90.05
M 190.55 44.55
L 163.35 44.55 176.9 67.25 190.55 44.55
M 256.6 90.05
L 245 70.85 233.05 90.8
Q 233.05 91.05 233 91.05
L 205.8 136.15
Q 205.8 136.3 205.6 136.45
L 192.7 158.1 204.1 177.3 256.6 90.05 Z"/>
</g>
</defs>

<g transform="matrix( 1, 0, 0, 1, 0,0) ">
<use xlink:href="#Layer0_0_FILL"/>
</g>
</svg>
