
<svg xmlns="http://www.w3.org/2000/svg" version="1.1" xmlns:xlink="http://www.w3.org/1999/xlink" preserveAspectRatio="none" x="0px" y="0px" width="310px" height="170px" viewBox="0 0 310 170">
<defs>
<g id="Layer0_0_FILL">
<path fill="#FFFFFF" stroke="none" d="
M 99.9 127.8
L 93.15 127.8 106.15 160.7 112.7 160.7 125.85 127.8 119.35 127.8 109.6 153.7 99.9 127.8
M 24.15 134
L 3.85 142.75 3.85 148.1 24.15 156.8 24.15 152.15 7.9 145.4 24.15 138.7 24.15 134
M 72.35 141.4
L 72.35 133.3 90.15 133.3 90.15 127.8 66.05 127.8 66.05 160.7 90.7 160.7 90.7 155.2 72.35 155.2 72.35 146.95 88.3 146.95 88.3 141.4 72.35 141.4
M 57.8 134.8
Q 56.9 133.5 55.75 132.4 54.6 131.35 53.2 130.5 51.85 129.6 50.3 129 48.75 128.4 47 128.1 45.3 127.8 43.4 127.8
L 29.75 127.8 29.75 160.7 43.2 160.7
Q 45.05 160.7 46.85 160.4 48.6 160.1 50.2 159.5 51.75 158.9 53.15 158 54.5 157.15 55.7 156.05 56.85 154.95 57.75 153.7 58.65 152.35 59.25 150.85 59.9 149.35 60.25 147.7 60.6 146.05 60.6 144.25 60.6 142.45 60.25 140.8 59.9 139.15 59.3 137.6 58.7 136.1 57.8 134.8
M 43.35 133.35
Q 45.6 133.35 47.6 134.15 49.55 134.95 51.05 136.4 52.5 137.9 53.3 139.85 54.15 141.95 54.15 144.3 54.15 146.65 53.35 148.7 52.55 150.65 51.15 152.1 49.7 153.6 47.8 154.35 45.8 155.15 43.55 155.15
L 36.05 155.15 36.05 133.35 43.35 133.35
M 95 22.5
Q 92.1 15.55 86.4 10.85 80.8 6.15 72.75 3.65 64.45 1.15 54.05 1.15
L 6.8 1.15 6.8 106.35 34.3 106.35 34.3 77.25 54.7 77.25 69.95 106.35 101.05 106.35 79.15 71.95
Q 83.75 69.6 87.2 66.25 90.7 62.9 93.15 58.7 95.5 54.3 96.75 49.2 97.9 44 97.9 38.05 97.9 29.4 95 22.5
M 61.75 24.05
Q 64.95 25.1 67.2 27.2 69.45 29.2 70.65 32.1 71.8 35.15 71.8 39 71.8 42.95 70.65 46 69.45 49.05 67.2 51.2 64.95 53.2 61.75 54.2 58.35 55.4 54.25 55.4
L 34.3 55.4 34.3 23.05 54.25 23.05
Q 58.35 23.05 61.75 24.05
M 274.6 127.8
L 251.9 127.8 251.9 160.7 258.2 160.7 258.2 147.7 273.1 147.7 273.1 142.2 258.2 142.2 258.2 133.3 274.55 133.3 274.6 127.8
M 297.15 147.85
L 297.15 142.45 276.85 133.8 276.85 138.4 293.1 145.15 276.85 151.85 276.85 156.55 297.15 147.85
M 171.6 132.9
Q 170.4 131.65 168.9 130.7 167.45 129.7 165.8 129.05 164.15 128.35 162.4 127.95 160.65 127.6 158.9 127.6 157.1 127.6 155.35 127.95 153.6 128.25 152.05 128.9 150.45 129.5 149.05 130.4 147.7 131.25 146.5 132.4 145.35 133.5 144.4 134.8 143.5 136.15 142.85 137.65 142.2 139.15 141.85 140.8 141.5 142.45 141.5 144.2 141.5 145.95 141.85 147.65 142.2 149.3 142.85 150.85 143.45 152.35 144.4 153.7 145.3 155 146.45 156.15 147.6 157.3 149 158.2 150.35 159.05 151.9 159.7 153.45 160.35 155.15 160.65 156.85 161 158.65 161 160.45 161 162.2 160.6 163.95 160.2 165.65 159.45 167.35 158.7 168.85 157.65 170.35 156.65 171.65 155.35
L 167.9 151.2
Q 166.05 153 163.7 154 161.35 155.05 159 155.05 156.7 155.05 154.65 154.2 152.65 153.4 151.15 151.9 149.6 150.4 148.8 148.4 147.95 146.4 147.95 144.1 147.95 141.85 148.8 139.85 149.6 137.85 151.15 136.35 152.65 134.85 154.65 134.05 156.7 133.2 159 133.2 160.2 133.2 161.4 133.5
L 163.8 134.35
Q 165.3 135.1 167.9 137.5
L 171.6 132.9
M 220.75 127.8
L 214.8 127.8 214.8 160.7 220.95 160.7 220.95 138.25 237.9 160.7 243.85 160.7 243.85 127.8 237.75 127.8 237.75 150.3 220.75 127.8
M 208.9 147.7
Q 209.25 146 209.25 144.25 209.25 142.5 208.9 140.85 208.55 139.2 207.95 137.65 207.25 136.15 206.35 134.85 205.4 133.5 204.2 132.4 203.05 131.25 201.65 130.4 200.25 129.5 198.65 128.9 197.05 128.25 195.35 127.95 193.55 127.6 191.75 127.6 189.9 127.6 188.15 127.95 186.4 128.25 184.8 128.85 183.25 129.5 181.85 130.4 180.45 131.25 179.25 132.4 178.05 133.5 177.15 134.8 176.2 136.15 175.55 137.65 174.9 139.15 174.55 140.8 174.2 142.5 174.2 144.25 174.2 146 174.55 147.7 174.9 149.3 175.55 150.85 176.2 152.35 177.15 153.7 178.05 155.05 179.25 156.15 180.45 157.3 181.85 158.2 183.25 159.05 184.8 159.7 186.4 160.35 188.15 160.65 189.9 161 191.75 161 193.55 161 195.35 160.65 197.05 160.35 198.65 159.7 200.25 159.05 201.65 158.2 203.05 157.3 204.2 156.15 205.4 155.05 206.35 153.7 207.25 152.35 207.95 150.85 208.55 149.3 208.9 147.7
M 180.65 144.25
Q 180.65 141.95 181.55 139.9 182.4 137.95 183.95 136.4 185.5 134.95 187.5 134.1 189.55 133.25 191.8 133.25 194.05 133.25 196.1 134.1 198.05 134.95 199.6 136.4 201.1 137.95 201.95 139.9 202.85 141.95 202.85 144.25 202.85 146.55 201.95 148.6 201.1 150.6 199.6 152.1 198.05 153.65 196.1 154.5 194.05 155.35 191.8 155.35 189.6 155.35 187.55 154.5 185.5 153.65 183.95 152.1 182.4 150.6 181.55 148.6 180.65 146.55 180.65 144.25
M 185.8 11.85
Q 173.6 5.3 166.45 3.3 151.5 0 143.75 0 134.4 0 126.5 2.25 118.85 4.45 113.3 8.65 107.65 12.9 104.8 18.85 101.75 24.85 101.75 32.05 101.75 38.75 104.1 43.9 106.25 48.6 110.4 52.2 114 55.3 119.25 57.75
L 129.45 61.4
Q 136.35 63.6 148.45 67.1 152.7 68.85 154.7 70.8 157.15 73.15 157.15 76.35 157.15 80.4 153.55 82.65 150 84.85 143.85 84.85 139.85 84.85 134.85 83.7
L 124.8 80.4 114.8 75.4
Q 109.8 72.45 105.8 69
L 95.15 90.5
Q 99.85 94.3 105.55 97.45 111.2 100.55 117.5 102.75 123.85 104.95 130.4 106.05 137.05 107.2 143.6 107.2 152.45 107.2 160.1 105.15 167.85 103.15 173.55 99.05 179.5 94.95 182.5 89 184.25 85.85 185 82.35 185.95 78.85 185.95 74.85 185.95 68.05 183.55 62.75 181.35 57.95 177.3 54.2 173.7 51 168.4 48.45
L 158.2 44.55
Q 144.4 40.8 139.15 38.65 135 36.9 133 34.9 130.55 32.65 130.55 29.55 130.55 26 133.55 24.15 136.45 22.35 141.5 22.35 147.9 22.35 157.6 25.6 166.9 28.75 175.4 33.6
L 185.8 11.85
M 294.25 1.15
L 266 1.15 239.7 77.25 213.35 1.15 183.8 1.15 224.6 106.35 253.15 106.35 294.25 1.15 Z"/>
</g>
</defs>

<g transform="matrix( 1.0228424072265625, 0, 0, 1.022979736328125, 1.05,2.65) ">
<use xlink:href="#Layer0_0_FILL"/>
</g>
</svg>
