
<svg xmlns="http://www.w3.org/2000/svg" version="1.1" xmlns:xlink="http://www.w3.org/1999/xlink" preserveAspectRatio="none" x="0px" y="0px" width="300px" height="250px" viewBox="0 0 300 250">
<defs>
<g id="Layer0_0_FILL">
<path fill="#FEA927" stroke="none" d="
M 150.05 187.7
L 149.95 187.7 131.25 218.9 112.5 187.65 75 250.15 149.95 250.15 149.95 250.05 150.05 250.05 150.05 250.15 225 250.15 187.5 187.65 168.75 218.9 150.05 187.7 Z"/>

<path fill="#FEE1B2" stroke="none" d="
M 150.05 125.2
L 149.95 125.2 112.5 187.65 131.25 218.9 149.95 187.7 149.95 187.55 150.05 187.55 150.05 187.7 168.75 218.9 187.5 187.65 150.05 125.2 Z"/>

<path fill="#FE9900" stroke="none" d="
M 112.5 187.5
L 93.75 156.25 75 187.5 93.75 218.75 112.5 187.5
M 225 187.5
L 206.25 156.25 187.5 187.5 206.25 218.75 225 187.5 Z"/>

<path fill="#EE6E00" stroke="none" d="
M 75 187.5
L 37.5 125 18.75 93.75 0 125 75 250 93.75 218.75 75 187.5
M 262.5 125
L 225 187.5 206.25 218.75 225 250 300 125 281.25 93.75 262.5 125 Z"/>

<path fill="#E55200" stroke="none" d="
M 75 0
L 18.75 93.75 37.5 125 112.5 0 75 0
M 225 0
L 187.5 0 262.5 125 281.25 93.75 225 0
M 150 93.75
L 112.5 93.75 131.25 125 150 93.75
M 93.75 62.5
L 112.5 93.75 131.25 62.5 93.75 62.5
M 168.75 125
L 187.5 93.75 150 93.75 168.75 125
M 168.75 62.5
L 187.5 93.75 206.25 62.5 168.75 62.5 Z"/>
</g>
</defs>

<g transform="matrix( 1, 0, 0, 1, 0,0) ">
<use xlink:href="#Layer0_0_FILL"/>
</g>
</svg>
